<svg height="512" width="512" xmlns="http://www.w3.org/2000/svg"><linearGradient id="a" gradientUnits="userSpaceOnUse" x1="23.821" x2="459.531" y1="336.331" y2="84.774"><stop offset="0" stop-color="#dcfdee" stop-opacity="0"/><stop offset=".629" stop-color="#d2f3e4"/></linearGradient><path d="M16.074 295.943c18.727 64.003 72.707 194.564 163.922 182.845 91.486-11.755 55.759-129.725 139.508-145.894 36.867-7.118 61.857 56.689 98.806 54.704 47.588-2.557 71.81-49.663 85.108-89.264 28.197-83.968-14.029-226.352-112.859-251.012-86.244-21.519-96.332 83.855-171.322 53.248-42.149-17.203-37.938-68.576-89.272-78.942C-25.333-9.731-8.845 210.778 16.074 295.943z" fill="url(#a)"/><path d="M350.232 493.402H161.768c-16.569 0-30-13.431-30-30V82.723c0-16.569 13.431-30 30-30h188.464c16.569 0 30 13.431 30 30v380.678c0 16.569-13.431 30.001-30 30.001z" fill="#2626bc" opacity=".1"/><path d="M350.232 469.402H161.768c-16.569 0-30-13.431-30-30V58.723c0-16.569 13.431-30 30-30h188.464c16.569 0 30 13.431 30 30v380.678c0 16.569-13.431 30.001-30 30.001z" fill="#6583fe"/><path d="M131.77 71.632h248.46v354.86H131.77z" fill="#2d58e0"/><path d="M239.225 201.915h-50.943c-5.523 0-10-4.477-10-10v-47.011c0-5.523 4.477-10 10-10h50.943c5.523 0 10 4.477 10 10v47.011c0 5.523-4.477 10-10 10zm84.919-.282h-50.943c-5.523 0-10-4.477-10-10v-47.011c0-5.523 4.477-10 10-10h50.943c5.523 0 10 4.477 10 10v47.011c0 5.523-4.477 10-10 10zm55.804-67.011v67.01h-21.55c-5.52 0-10-4.48-10-10v-47.01c0-5.52 4.48-10 10-10z" fill="#1f50c9"/><path d="M309.84 93.061H202.16a5 5 0 000 10h107.68a5 5 0 000-10z" fill="#fff"/><path d="M239.225 191.403h-50.943c-5.523 0-10-4.477-10-10v-47.011c0-5.523 4.477-10 10-10h50.943c5.523 0 10 4.477 10 10v47.011c0 5.523-4.477 10-10 10z" fill="#ff7eb8"/><path d="M228.594 170.507h-20.681a5 5 0 000 10h20.681a5 5 0 000-10zm0-16.33h-5.681a5 5 0 000 10h5.681a5 5 0 000-10z" fill="#fff"/><path d="M324.144 191.122h-50.943c-5.523 0-10-4.477-10-10V134.11c0-5.523 4.477-10 10-10h50.943c5.523 0 10 4.477 10 10v47.011c0 5.523-4.477 10.001-10 10.001z" fill="#02ffb3"/><path d="M313.513 170.226h-20.681a5 5 0 000 10h20.681a5 5 0 000-10zm0-16.331h-5.681a5 5 0 000 10h5.681a5 5 0 000-10z" fill="#fff"/><path d="M379.948 124.111v67.01h-21.55c-5.52 0-10-4.48-10-10v-47.01c0-5.52 4.48-10 10-10z" fill="#9fb0fe"/><path d="M131.77 426.492v-184.74c0-13.8 11.19-25 25-25h198.46c13.81 0 25 11.2 25 25v184.74z" fill="#fff"/><path d="M350.232 474.401H161.768c-19.299 0-35-15.701-35-35V58.724c0-19.299 15.701-35 35-35h188.464c19.299 0 35 15.701 35 35v380.678c0 19.298-15.701 34.999-35 34.999zM161.768 33.724c-13.785 0-25 11.215-25 25v380.678c0 13.785 11.215 25 25 25h188.464c13.785 0 25-11.215 25-25V58.724c0-13.785-11.215-25-25-25z" fill="#2626bc"/><path d="M273.483 56.094h-34.966a5 5 0 010-10h34.966a5 5 0 010 10z" fill="#b7c5ff"/><circle cx="296.813" cy="51.092" fill="#b7c5ff" r="5.002"/><path d="M234.594 249.062h-20.681a5 5 0 000 10h20.681a5 5 0 000-10z" fill="#00d890"/><path d="M336.594 269.335H213.913a5 5 0 000 10h122.681a5 5 0 000-10z" fill="#9fb0fe"/><path d="M184.926 279.335h-20.272a5 5 0 01-5-5v-20.272a5 5 0 015-5h20.272a5 5 0 015 5v20.272a5 5 0 01-5 5z" fill="#02ffb3"/><path d="M234.594 311.006h-20.681a5 5 0 000 10h20.681a5 5 0 000-10z" fill="#ff5ba8"/><path d="M336.594 331.278H213.913a5 5 0 000 10h122.681a5 5 0 000-10z" fill="#9fb0fe"/><path d="M184.926 341.278h-20.272a5 5 0 01-5-5v-20.272a5 5 0 015-5h20.272a5 5 0 015 5v20.272a5 5 0 01-5 5z" fill="#ff7eb8"/><path d="M234.594 372.949h-20.681a5 5 0 000 10h20.681a5 5 0 000-10z" fill="#6583fe"/><path d="M336.594 393.221H213.913a5 5 0 000 10h122.681a5 5 0 000-10zm-151.668 10h-20.272a5 5 0 01-5-5v-20.272a5 5 0 015-5h20.272a5 5 0 015 5v20.272a5 5 0 01-5 5z" fill="#9fb0fe"/><path d="M418.336 397.24c-7.88 0-14.291-6.411-14.291-14.292s6.411-14.292 14.291-14.292 14.291 6.411 14.291 14.292-6.411 14.292-14.291 14.292zm0-18.583c-2.366 0-4.291 1.925-4.291 4.292s1.925 4.292 4.291 4.292 4.291-1.925 4.291-4.292-1.925-4.292-4.291-4.292z" fill="#6583fe"/><path d="M82.919 184.409a5 5 0 01-5-5c0-3.309-2.691-6-6-6a5 5 0 010-10c3.309 0 6-2.691 6-6a5 5 0 0110 0c0 3.309 2.691 6 6 6a5 5 0 010 10c-3.309 0-6 2.691-6 6a5 5 0 01-5 5zm349.733 258.084a5 5 0 01-5-5c0-3.309-2.691-6-6-6a5 5 0 110-10c3.309 0 6-2.691 6-6a5 5 0 1110 0c0 3.309 2.691 6 6 6a5 5 0 110 10c-3.309 0-6 2.691-6 6a5 5 0 01-5 5z" fill="#01eca5"/><path d="M443.652 150.622a5 5 0 01-5-5c0-3.309-2.691-6-6-6a5 5 0 110-10c3.309 0 6-2.691 6-6a5 5 0 1110 0c0 3.309 2.691 6 6 6a5 5 0 110 10c-3.309 0-6 2.691-6 6a5 5 0 01-5 5zM72.627 233.706a5 5 0 01-5-5c0-3.309-2.691-6-6-6a5 5 0 010-10c3.309 0 6-2.691 6-6a5 5 0 0110 0c0 3.309 2.691 6 6 6a5 5 0 010 10c-3.309 0-6 2.691-6 6a5 5 0 01-5 5z" fill="#ff5ba8"/></svg>